<svg xmlns="http://www.w3.org/2000/svg" width="170" height="170" viewBox="0 0 170 170">
  <path d="M35 100 C18 100 8 90 8 78 C8 65 18 56 32 56 C34 43 47 32 65 32 C80 32 93 41 98 54 C101 52 105 51 110 51 C128 51 140 63 140 78 C140 93 128 100 115 100 Z" fill="#78909C"/>
  <g stroke="#42A5F5" stroke-width="3" stroke-linecap="round">
    <line x1="50" y1="112" x2="44" y2="130"/>
    <line x1="70" y1="112" x2="64" y2="130"/>
    <line x1="90" y1="112" x2="84" y2="130"/>
    <line x1="110" y1="112" x2="104" y2="130"/>
    <line x1="60" y1="134" x2="54" y2="148"/>
    <line x1="80" y1="134" x2="74" y2="148"/>
    <line x1="100" y1="134" x2="94" y2="148"/>
  </g>
</svg>
